<?xml version="1.0" encoding="UTF-8"?>
<svg version="1.1" xmlns="http://www.w3.org/2000/svg" width="1024" height="1024">
<path d="M0 0 C337.92 0 675.84 0 1024 0 C1024 337.92 1024 675.84 1024 1024 C686.08 1024 348.16 1024 0 1024 C0 686.08 0 348.16 0 0 Z " fill="#00484D" transform="translate(0,0)"/>
<path d="M0 0 C2.9778433 2.51821966 4.9609324 5.5906761 7.06640625 8.84765625 C8.77967138 11.49296855 10.60997115 13.97194706 12.546875 16.45703125 C13.09859375 17.16730469 13.6503125 17.87757813 14.21875 18.609375 C15.74861182 20.53690821 15.74861182 20.53690821 17.5 22.1484375 C18.796875 23.51953125 18.796875 23.51953125 18.796875 25.51953125 C19.68439453 25.92171875 19.68439453 25.92171875 20.58984375 26.33203125 C22.81602255 27.52983365 24.28923975 28.77889616 26.109375 30.51953125 C30.64297607 34.61356263 35.65011778 37.85657572 40.78051758 41.14257812 C45.6975726 44.32092645 45.6975726 44.32092645 46.796875 46.51953125 C46.88113196 49.07638422 46.90963856 51.61116345 46.90234375 54.16796875 C46.91582049 55.74740932 46.93084734 57.32683727 46.94726562 58.90625 C46.96991229 61.38569408 46.98453161 63.86373049 46.97192383 66.34326172 C46.92829488 78.04289452 47.69512063 87.84281294 56.00952148 96.94067383 C66.09727771 106.62731243 75.86753464 109.00525757 89.44458008 109.10229492 C99.12031342 108.87516503 105.85367662 105.81882304 113.796875 100.51953125 C114.53035156 100.03194336 115.26382812 99.54435547 116.01953125 99.04199219 C132.53263889 87.87259324 149.00451677 74.68842982 162.19921875 59.6640625 C164.5203378 58.00125594 166.01005962 58.10107755 168.796875 58.51953125 C176.86250123 64.44245332 181.61818032 76.09190773 183.796875 85.51953125 C184.05721629 88.40166243 184.07753417 91.25234909 184.046875 94.14453125 C184.05460937 94.881875 184.06234375 95.61921875 184.0703125 96.37890625 C184.05115967 101.72254617 183.6490395 105.66736675 179.796875 109.51953125 C173.05730852 109.84563931 173.05730852 109.84563931 169.89453125 109.02734375 C161.59490811 107.018124 154.06927651 108.33052971 146.796875 112.51953125 C145.930625 113.05191406 145.064375 113.58429688 144.171875 114.1328125 C137.51631784 118.21114984 131.1471516 121.05353333 123.671875 123.21435547 C118.32528607 124.88453991 115.95618562 126.85911172 112.796875 131.51953125 C111.57817571 134.02400641 111.57817571 134.02400641 110.796875 136.51953125 C107.96115547 144.04379104 104.00394963 147.98151279 96.796875 151.51953125 C89.78169384 153.71085618 82.12004062 153.56501773 75.484375 150.39453125 C71.74792372 148.29091514 68.66229661 145.81481581 65.50390625 142.9375 C57.29107023 136.11539594 47.09499021 134.87072238 36.796875 135.51953125 C17.75426828 137.33189731 1.6449552 146.62145936 -11.203125 160.51953125 C-14.61189133 165.35084283 -15.92226105 169.32991022 -15.64453125 175.20703125 C-15.29869645 177.79644631 -15.29869645 177.79644631 -13.203125 180.64453125 C-9.9146786 182.69981025 -8.04468284 183.10740307 -4.265625 183.18359375 C-0.242103 181.88814159 2.20407164 178.16960006 4.98046875 175.125 C13.39460686 166.0983943 24.14255532 158.50154263 36.75390625 157.21875 C49.71126119 157.16557344 57.29047542 161.16949713 67.796875 168.51953125 C76.90049199 174.27262493 86.14188681 174.96981959 96.734375 172.80078125 C107.73517412 170.05058147 117.56273273 166.51227262 123.796875 156.51953125 C125.17810013 153.34613799 126.3842591 150.10626761 127.4050293 146.79931641 C128.65551704 143.11872525 129.92807027 141.08275205 133.21484375 139.12890625 C135.98787711 137.88300686 138.15051756 136.97915959 141.109375 136.51953125 C146.97527373 135.40077737 152.46373972 133.18609889 157.796875 130.51953125 C161.57987943 130.28633235 165.35670509 130.12462364 169.14453125 130.00195312 C169.93472656 129.96779297 170.72492188 129.93363281 171.5390625 129.8984375 C172.61969971 129.86085327 172.61969971 129.86085327 173.72216797 129.82250977 C176.07902543 129.47832759 177.70972106 128.64107195 179.796875 127.51953125 C182.171875 126.95703125 182.171875 126.95703125 184.796875 127.51953125 C191.4646209 132.87784902 194.36492951 141.34756644 195.796875 149.51953125 C196.6408203 161.38482016 197.13344866 173.63572971 191.796875 184.51953125 C191.44625 185.298125 191.095625 186.07671875 190.734375 186.87890625 C184.87460382 198.67983433 175.27718867 207.10554686 162.859375 211.33203125 C161.50783915 211.73675614 160.15394766 212.13377849 158.796875 212.51953125 C157.806875 212.84953125 156.816875 213.17953125 155.796875 213.51953125 C142.40525929 214.6811336 133.17004317 211.32199148 121.63671875 204.53515625 C114.4463969 200.56597646 101.65791793 201.47495087 93.734375 203.33203125 C87.1705486 205.67297633 81.37741648 210.13218228 75.65234375 214.0234375 C71.22865931 216.9652835 67.57610141 218.80917299 62.171875 218.70703125 C61.41648437 218.70058594 60.66109375 218.69414062 59.8828125 218.6875 C57.796875 218.51953125 57.796875 218.51953125 54.796875 217.51953125 C48.89552421 216.91002959 48.89552421 216.91002959 43.796875 219.58203125 C41.2644579 223.30151887 41.09837774 225.09571525 41.796875 229.51953125 C44.08041746 233.91746489 46.32019142 236.39310655 50.796875 238.51953125 C61.41675143 241.85450358 72.18372813 239.45659989 81.796875 234.51953125 C86.10621732 232.02432881 90.29698244 229.35809028 94.4609375 226.62890625 C100.67389934 222.70033553 106.62015172 222.93451707 113.796875 223.51953125 C117.35572948 224.44769747 120.50287118 225.89961009 123.796875 227.51953125 C126.06577495 228.58615362 128.33669469 229.64848767 130.609375 230.70703125 C131.66769531 231.21621094 132.72601562 231.72539063 133.81640625 232.25 C139.59762123 234.71250966 144.92292037 234.64550711 151.109375 234.58203125 C152.36331055 234.57526367 152.36331055 234.57526367 153.64257812 234.56835938 C155.69404149 234.55663673 157.74546773 234.53870328 159.796875 234.51953125 C155.56767437 246.42473103 144.96941646 254.91720525 134.171875 260.76953125 C118.49072291 268.03592369 102.81291112 268.29358572 85.796875 268.51953125 C85.65985421 272.27563021 85.68332902 275.03986894 87.40625 278.40234375 C87.91768555 279.43234497 87.91768555 279.43234497 88.43945312 280.4831543 C88.80490234 281.19640869 89.17035156 281.90966309 89.546875 282.64453125 C98.46348932 300.81783359 98.46348932 300.81783359 97.796875 309.51953125 C97.136875 310.50953125 96.476875 311.49953125 95.796875 312.51953125 C92.70182955 313.10652263 89.93037617 313.37110225 86.796875 313.51953125 C85.5078125 313.6071875 84.21875 313.69484375 82.890625 313.78515625 C70.79577313 314.40211087 70.79577313 314.40211087 66.734375 311.51953125 C63.31254153 307.75551444 61.65281169 302.90137001 59.76245117 298.24658203 C54.2506945 284.95431411 45.6370376 273.11121039 36.59375 262.00390625 C32.9339472 257.50073495 29.52216214 252.80953529 26.11914062 248.1105957 C16.79812281 235.46644654 7.37398637 229.92892903 -8.203125 227.51953125 C-16.33991121 226.52312724 -24.52552059 225.94395633 -32.6953125 225.29003906 C-52.16327783 223.70993366 -68.38124125 221.67686271 -82.203125 206.51953125 C-85.53765918 201.83052192 -89.05489747 196.85533021 -90.93945312 191.38037109 C-91.80887622 189.05896994 -92.56788632 187.390251 -94.203125 185.51953125 C-97.74882753 184.30570475 -101.23007668 184.31927578 -104.953125 184.26953125 C-107.0421632 184.16155629 -109.13074314 184.0443276 -111.21875 183.91796875 C-112.24162109 183.85963867 -113.26449219 183.80130859 -114.31835938 183.74121094 C-131.36469393 182.43128611 -146.40566712 174.69468552 -158.203125 162.51953125 C-158.77417969 161.9575 -159.34523438 161.39546875 -159.93359375 160.81640625 C-164.65652258 155.8142297 -167.45917495 149.76829065 -170.203125 143.51953125 C-170.71939453 142.36710937 -170.71939453 142.36710937 -171.24609375 141.19140625 C-176.64008435 126.70613571 -173.75479086 108.33072211 -167.47265625 94.578125 C-160.27783231 79.88685361 -149.27094155 66.53422503 -134.203125 59.51953125 C-131.99830057 59.04460517 -129.78972152 58.58685055 -127.578125 58.14453125 C-123.24597982 56.95239425 -123.24597982 56.95239425 -120.0234375 53.97949219 C-118.54282149 51.35362526 -117.34568351 48.64834748 -116.16625977 45.87646484 C-110.01304091 31.59503976 -97.32027335 22.27968089 -83.203125 16.51953125 C-76.35625243 14.34857166 -69.39433994 12.72050737 -62.203125 13.51953125 C-59.98984056 15.14156004 -59.29525061 16.15835006 -58.61328125 18.83203125 C-58.49855469 19.71890625 -58.38382812 20.60578125 -58.265625 21.51953125 C-56.79788808 30.55267633 -54.25194641 40.22258412 -47.203125 46.51953125 C-41.24552476 50.30774327 -34.92502632 52.95702635 -28.27734375 55.265625 C-27.43647217 55.55945068 -26.59560059 55.85327637 -25.72924805 56.15600586 C-24.08609147 56.71769957 -22.43525483 57.25756405 -20.77661133 57.77172852 C-14.35013598 59.92649187 -10.26196014 63.40186096 -7.203125 69.51953125 C-6.57312733 75.65426262 -6.63284351 81.35010833 -9.72265625 86.8046875 C-12.07596704 89.53055408 -14.94179606 90.92420215 -18.1796875 92.4140625 C-20.51731572 93.48789584 -20.51731572 93.48789584 -22.203125 96.51953125 C-22.60875343 102.64082557 -22.60875343 102.64082557 -21.203125 108.51953125 C-15.5618502 110.39995618 -9.42128869 110.29999625 -3.828125 108.33203125 C-0.87838455 106.2953057 1.38345626 104.17429186 3.796875 101.51953125 C4.29316406 101.01550781 4.78945313 100.51148438 5.30078125 99.9921875 C12.34400248 92.4900095 14.14255857 85.03339623 14.234375 74.95703125 C14.24452637 74.16586914 14.25467773 73.37470703 14.26513672 72.55957031 C14.12653871 63.13881021 11.06441713 54.62274567 4.796875 47.51953125 C-1.60484598 41.98184623 -9.94333155 39.67583922 -17.89501953 37.22998047 C-25.13104227 34.90547697 -31.55300629 31.55285592 -35.703125 24.95703125 C-38.0700014 19.36259612 -38.41682117 13.43724239 -37.203125 7.51953125 C-34.10807916 2.50401375 -29.42834845 0.32234175 -23.953125 -1.41796875 C-16.0574269 -3.17013476 -7.25891636 -4.24436638 0 0 Z " fill="#00B580" transform="translate(528.203125,285.48046875)"/>
<path d="M0 0 C1.96848152 -0.005476 1.96848152 -0.005476 3.97673035 -0.01106262 C7.53447052 -0.02036374 11.09193039 -0.01113991 14.64964843 0.00226951 C18.3952009 0.01369756 22.14074183 0.009468 25.88630676 0.00752258 C32.16936755 0.00664349 38.45231964 0.01764175 44.73535156 0.03613281 C51.97623909 0.05732222 59.21696793 0.06080209 66.4578802 0.05457085 C73.45832847 0.04885749 80.45872146 0.05454426 87.45916176 0.0657444 C90.42341457 0.07036151 93.38763325 0.0712769 96.35188866 0.06915855 C100.49639426 0.06690846 104.64068173 0.08145037 108.78515625 0.09765625 C110.00048035 0.09517883 111.21580444 0.09270142 112.46795654 0.09014893 C130.85098773 0.20446651 145.24676131 6.12405047 158.88598633 18.55981445 C172.56621572 33.12581409 175.99913436 50.60662295 175.79223633 69.79418945 C175.79051881 71.51377274 175.79059739 73.23335865 175.7923584 74.95294189 C175.79072006 78.52642462 175.77229336 82.09926868 175.74047852 85.67260742 C175.70068471 90.22022363 175.69645698 94.76701224 175.70394135 99.31476974 C175.70702986 102.85473015 175.69482605 106.39450938 175.67781067 109.93442535 C175.67085364 111.61031202 175.66764711 113.28621917 175.66850281 114.96212006 C175.65265563 135.36381323 170.72334015 151.68891818 156.03833008 166.55981445 C142.53511969 179.1342326 128.08272279 183.63798021 109.99926758 183.2668457 C106.65527799 183.24287935 103.31133159 183.22939367 99.96728516 183.21582031 C97.67177522 183.19522769 95.37635363 183.15500884 93.08154297 183.09472656 C78.17644654 182.20249998 78.17644654 182.20249998 65.39152527 188.5620575 C63.12517419 191.04014324 61.17832343 193.65855676 59.19848633 196.37231445 C57.80043946 197.68642577 56.37085879 198.96966944 54.88598633 200.18481445 C52.42660979 202.27629245 50.12871351 204.42524551 47.88598633 206.74731445 C44.21939389 210.4719751 40.22042618 213.71164496 36.15161133 216.9855957 C33.15339684 219.40875582 30.20655704 221.88554337 27.26098633 224.37231445 C22.24863564 228.55795276 17.1417299 232.53896791 11.86645508 236.38793945 C9.27612443 238.25552743 9.27612443 238.25552743 7.31176758 240.04418945 C2.88821857 243.85722444 -1.23172948 244.05341549 -6.98510742 243.79418945 C-10.82469756 243.21904974 -13.02411977 242.07661904 -15.80151367 239.37231445 C-17.5095782 235.86623014 -18.06259135 233.00326407 -18.12036133 229.12304688 C-18.14023102 228.10236618 -18.16010071 227.08168549 -18.18057251 226.03007507 C-18.19212372 224.94031876 -18.20367493 223.85056244 -18.21557617 222.7277832 C-18.23494232 221.60285965 -18.25430847 220.4779361 -18.27426147 219.31892395 C-18.33395077 215.73263079 -18.38040062 212.14630536 -18.42651367 208.55981445 C-18.4647032 206.12555581 -18.5037555 203.69131054 -18.54370117 201.25708008 C-18.63964365 195.2956104 -18.72472242 189.33405992 -18.80151367 183.37231445 C-19.60250488 183.11474365 -20.40349609 182.85717285 -21.22875977 182.59179688 C-22.29175293 182.24479736 -23.35474609 181.89779785 -24.44995117 181.5402832 C-25.49844238 181.2002124 -26.54693359 180.8601416 -27.62719727 180.50976562 C-37.27397951 177.05303908 -44.59847816 171.563016 -51.80151367 164.37231445 C-52.45120117 163.73422852 -53.10088867 163.09614258 -53.77026367 162.4387207 C-67.37310212 148.0901126 -68.2807922 129.10111937 -68.23510742 110.4230957 C-68.23968638 108.75074557 -68.24499693 107.0783973 -68.25099182 105.40605164 C-68.25984167 101.93110419 -68.25759116 98.4563876 -68.24755859 94.98144531 C-68.23603649 90.56389281 -68.2563714 86.14713592 -68.28547573 81.72968769 C-68.3039502 78.28664739 -68.30352378 74.84379428 -68.29783821 71.40071678 C-68.2976866 69.77308213 -68.30359602 68.14543346 -68.31612968 66.51784706 C-68.44262511 47.41968027 -63.21263282 31.97471021 -49.66479492 18.1027832 C-45.66868437 14.29203112 -41.54354201 11.18883765 -36.80151367 8.37231445 C-36.01260742 7.90180664 -35.22370117 7.43129883 -34.41088867 6.9465332 C-23.59542469 1.03291661 -12.1322508 -0.07668856 0 0 Z " fill="#00474E" transform="translate(616.801513671875,125.627685546875)"/>
<path d="M0 0 C1.21526367 -0.01643555 2.43052734 -0.03287109 3.68261719 -0.04980469 C6.703125 0.171875 6.703125 0.171875 9.703125 2.171875 C10.07543945 4.38671875 10.07543945 4.38671875 10.06640625 7.109375 C10.06576172 8.08648437 10.06511719 9.06359375 10.06445312 10.0703125 C10.04833984 11.09382812 10.03222656 12.11734375 10.015625 13.171875 C10.02045898 14.70714844 10.02045898 14.70714844 10.02539062 16.2734375 C9.97001661 23.90498339 9.97001661 23.90498339 7.703125 26.171875 C5.02547589 26.45298657 2.43535646 26.61626081 -0.25 26.69921875 C-1.90747975 26.76776657 -3.56495011 26.83654178 -5.22241211 26.90551758 C-6.09203583 26.93835846 -6.96165955 26.97119934 -7.8576355 27.0050354 C-23.13272618 27.59769249 -38.23604483 28.41229075 -53.296875 31.171875 C-54.25513184 31.34589844 -55.21338867 31.51992188 -56.20068359 31.69921875 C-108.88781931 41.4983333 -156.74434358 65.55070439 -188.296875 110.171875 C-208.22182838 139.54061239 -219.87599282 174.41273867 -219.21921349 209.96306229 C-219.1571686 213.55196441 -219.12772681 217.14122756 -219.09179688 220.73046875 C-219.04416007 225.25935709 -218.98754421 229.78762422 -218.89916992 234.31591797 C-218.29247863 266.38529679 -218.29247863 266.38529679 -225.296875 279.171875 C-225.66917236 279.95852539 -226.04146973 280.74517578 -226.42504883 281.55566406 C-232.01414733 293.14765984 -239.93668233 303.67208258 -247.296875 314.171875 C-253.3318985 322.81233603 -259.22462323 331.51339093 -264.859375 340.421875 C-265.37250244 341.23269531 -265.88562988 342.04351563 -266.41430664 342.87890625 C-270.99634854 349.76622734 -270.99634854 349.76622734 -272.734375 357.671875 C-272.77433594 358.4246875 -272.81429687 359.1775 -272.85546875 359.953125 C-271.99064577 363.38822605 -270.26406062 364.33654297 -267.296875 366.171875 C-264.68966941 366.90426789 -262.32332284 367.44603142 -259.671875 367.859375 C-258.96546875 367.98183594 -258.2590625 368.10429688 -257.53125 368.23046875 C-253.4596445 368.91153731 -249.41667506 369.37760357 -245.296875 369.671875 C-238.9211072 370.1696827 -234.22239813 371.49216333 -229.359375 375.734375 C-226.66189281 378.92230849 -226.16263415 380.23860452 -226.41796875 384.29296875 C-226.46679199 385.13730469 -226.51561523 385.98164062 -226.56591797 386.8515625 C-226.62150879 387.76164062 -226.67709961 388.67171875 -226.734375 389.609375 C-226.93225581 393.46305378 -227.11622461 397.31735253 -227.296875 401.171875 C-227.36237549 402.54303467 -227.36237549 402.54303467 -227.42919922 403.94189453 C-227.53893651 406.51860139 -227.61112302 409.09360183 -227.671875 411.671875 C-227.70982178 412.45361084 -227.74776855 413.23534668 -227.78686523 414.04077148 C-227.84729942 418.06074761 -227.54078333 419.87089048 -224.9765625 423.03515625 C-224.09226562 423.74027344 -223.20796875 424.44539063 -222.296875 425.171875 C-221.71421875 425.67074219 -221.1315625 426.16960937 -220.53125 426.68359375 C-219.79648437 427.26560547 -219.79648437 427.26560547 -219.046875 427.859375 C-216.296875 430.171875 -216.296875 430.171875 -215.296875 432.171875 C-214.94760265 438.34235317 -214.94760265 438.34235317 -216.296875 441.546875 C-217.84082873 445.59975354 -218.2110553 448.97386282 -217.296875 453.171875 C-215.76625508 456.21224275 -214.15961954 459.08889516 -212.31884766 461.94702148 C-207.6648538 469.28471293 -207.01783264 476.46841051 -207.05859375 484.96484375 C-207.04318895 486.83008552 -207.02688644 488.69532006 -207.00976562 490.56054688 C-206.99326421 493.47046006 -206.98442444 496.37983836 -206.99145508 499.28979492 C-206.99407239 502.11958242 -206.96599903 504.94777018 -206.93359375 507.77734375 C-206.94890388 509.07903755 -206.94890388 509.07903755 -206.96452332 510.4070282 C-206.89335963 514.80317211 -206.72639755 516.61958078 -203.94458008 520.1965332 C-199.34740019 523.62629646 -195.08228895 523.33200927 -189.57421875 523.33984375 C-188.25393677 523.345924 -188.25393677 523.345924 -186.90698242 523.35212708 C-184.01607711 523.36165409 -181.12529403 523.36151012 -178.234375 523.359375 C-177.24591583 523.3601001 -176.25745667 523.3608252 -175.23904419 523.36157227 C-162.20243637 523.36051839 -149.24083774 523.05415188 -136.234375 522.171875 C-125.9436401 521.48389771 -115.6758142 520.91124002 -105.359375 520.796875 C-104.29388428 520.77109375 -103.22839355 520.7453125 -102.13061523 520.71875 C-91.99186953 520.69276779 -83.18093523 523.49572792 -75.359375 530.07421875 C-64.89397321 540.71800807 -61.05621786 555.74631111 -58.046875 569.921875 C-57.76191728 571.22831213 -57.47599849 572.53453993 -57.18920898 573.84057617 C-56.56409871 576.69452833 -55.94501661 579.54970637 -55.32958984 582.40576172 C-54.18888258 587.68769908 -53.01823593 592.96289821 -51.84765625 598.23828125 C-51.01756864 601.98683318 -50.18837343 605.73558207 -49.359375 609.484375 C-49.15606567 610.40271118 -48.95275635 611.32104736 -48.74328613 612.26721191 C-48.16644407 614.8768693 -47.59253788 617.4871544 -47.01953125 620.09765625 C-46.84488846 620.88580215 -46.67024567 621.67394806 -46.49031067 622.48597717 C-45.296875 627.9426457 -45.296875 627.9426457 -45.296875 630.171875 C-27.72278998 628.45578705 -10.22528976 626.44773096 7.28125 624.140625 C14.85690008 623.14352144 22.44119737 622.23377439 30.02940369 621.33837891 C38.01771468 620.38861446 45.99553078 619.36720085 53.97265625 618.328125 C64.8932644 616.91085776 75.81738078 615.5251848 86.74609375 614.171875 C88.08818807 614.00543146 89.43027994 613.83896819 90.77236938 613.67248535 C96.16468381 613.0038862 101.5570681 612.33587383 106.94995117 611.671875 C116.20444961 610.53166916 125.45550766 609.36685115 134.703125 608.171875 C135.36401375 608.08701843 136.0249025 608.00216187 136.70581818 607.91473389 C141.24520406 607.33102363 145.78123757 606.72517198 150.31640625 606.109375 C151.47891403 605.95919922 152.64142181 605.80902344 153.8391571 605.65429688 C159.36322998 604.88586285 163.93127766 604.12804411 168.703125 601.171875 C168.24108682 593.10973096 166.52476438 585.40580344 164.66537476 577.57214355 C163.75232059 573.72197017 162.86151539 569.86663795 161.96875 566.01171875 C161.68985176 564.81030746 161.68985176 564.81030746 161.40531921 563.58462524 C159.31460196 554.54900706 157.34532148 545.48772866 155.390625 536.421875 C155.22617889 535.66208344 155.06173279 534.90229187 154.89230347 534.11947632 C142.36193533 476.20456299 142.36193533 476.20456299 149.703125 448.171875 C149.86941406 447.51525879 150.03570313 446.85864258 150.20703125 446.18212891 C154.78553743 428.3556303 162.03176042 411.37088857 170.703125 395.171875 C171.29351563 394.06199219 171.88390625 392.95210937 172.4921875 391.80859375 C178.05624796 381.7340928 184.54813183 372.28880126 190.97216797 362.75097656 C216.18445466 325.18502499 238.48494988 281.74357042 238.94140625 235.40625 C238.95097351 234.58241318 238.96054077 233.75857635 238.97039795 232.90977478 C238.99494029 230.24710257 239.00752529 227.58464614 239.015625 224.921875 C239.01924042 224.01490875 239.02285583 223.1079425 239.02658081 222.17349243 C239.05412679 204.9428201 237.93354311 187.95321255 233.703125 171.171875 C233.31657509 168.29483923 233.42067197 166.13763186 233.703125 163.171875 C239.42863423 157.8042101 248.20038759 157.9612251 255.578125 158.1015625 C256.279375 158.12476563 256.980625 158.14796875 257.703125 158.171875 C277.15360242 213.52153974 266.00036547 276.75919047 241.43359375 328.5078125 C240.52493119 330.39655267 239.61489637 332.28463362 238.703125 334.171875 C238.34557129 334.92500977 237.98801758 335.67814453 237.61962891 336.45410156 C232.27165832 347.62448074 225.43604477 357.76692609 218.51196289 368.00195312 C212.31976833 377.16400348 206.48958023 386.49308164 200.93457031 396.05566406 C199.79389785 398.0158839 198.63784297 399.96600664 197.4765625 401.9140625 C188.43692921 417.30587053 181.78196962 433.06884803 176.703125 450.171875 C176.33960938 451.39519531 175.97609375 452.61851562 175.6015625 453.87890625 C171.81339729 468.80144491 172.99622549 485.15937709 175.703125 500.171875 C175.85378418 501.02652344 176.00444336 501.88117188 176.15966797 502.76171875 C178.62509007 516.57376649 181.54207614 530.2884816 184.578125 543.984375 C184.7468512 544.74599945 184.91557739 545.5076239 185.0894165 546.29232788 C186.88840893 554.38500932 188.74690647 562.4571565 190.7734375 570.49609375 C190.93762177 571.15261429 191.10180603 571.80913483 191.27096558 572.48554993 C192.03579938 575.54093382 192.81420336 578.59127119 193.62060547 581.63598633 C196.47092133 592.88595734 197.38676456 603.66482241 191.703125 614.171875 C185.61349611 623.01573438 178.60674996 627.66703134 168.16162109 629.94384766 C166.24470459 630.29261963 166.24470459 630.29261963 164.2890625 630.6484375 C163.59097977 630.77561661 162.89289703 630.90279572 162.17366028 631.03382874 C154.93071735 632.3385867 147.66740271 633.50988252 140.390625 634.609375 C139.689375 634.71581329 138.988125 634.82225159 138.265625 634.93191528 C125.45168401 636.86526868 112.61169778 638.40165996 99.73272705 639.8250885 C98.98948181 639.90730148 98.24623657 639.98951447 97.48046875 640.07421875 C96.34312286 640.20001564 96.34312286 640.20001564 95.18280029 640.32835388 C84.36802505 641.5328092 73.56681982 642.85202774 62.765625 644.171875 C61.70211823 644.30163727 60.63861145 644.43139954 59.5428772 644.56509399 C46.58327368 646.15046228 33.65302291 647.84098594 20.73925781 649.7668457 C6.65426535 651.82750831 -7.51072117 653.27451937 -21.66381836 654.7800293 C-24.54929485 655.09124425 -27.43071734 655.42271052 -30.3125 655.765625 C-51.43407505 658.10346092 -51.43407505 658.10346092 -59.296875 652.171875 C-60.328125 651.511875 -61.359375 650.851875 -62.421875 650.171875 C-71.34722884 642.04472354 -73.18283551 628.5932006 -75.59765625 617.39355469 C-76.36248898 613.86955585 -77.1552498 610.35259975 -77.953125 606.8359375 C-78.24405029 605.55315918 -78.53497559 604.27038086 -78.8347168 602.94873047 C-78.9827475 602.2964447 -79.1307782 601.64415894 -79.28329468 600.97210693 C-80.03519594 597.65877654 -80.78637472 594.345287 -81.53515625 591.03125 C-81.68314163 590.37643646 -81.83112701 589.72162292 -81.9835968 589.04696655 C-82.98494991 584.59969278 -83.94968927 580.14542685 -84.90234375 575.6875 C-85.15894775 574.51340576 -85.41555176 573.33931152 -85.67993164 572.12963867 C-86.15903512 569.93717667 -86.62652059 567.74212866 -87.07983398 565.54418945 C-88.4454068 559.3726862 -90.22550846 554.1108961 -94.296875 549.171875 C-97.56377759 547.5384237 -101.144732 547.9817086 -104.734375 547.984375 C-106.14807373 547.9834082 -106.14807373 547.9834082 -107.59033203 547.98242188 C-117.0472419 548.04632973 -126.47375588 548.54451206 -135.915802 549.03103638 C-150.83906796 549.7936331 -165.7538654 550.42198959 -180.69805908 550.52636719 C-182.40837455 550.53986365 -184.11865204 550.5601873 -185.82879639 550.58789062 C-200.2238067 550.80488828 -212.01637925 548.58562742 -223.01171875 538.6171875 C-232.93888191 528.05852542 -232.99811818 516.24292646 -232.921875 502.609375 C-232.58643638 484.07306212 -232.58643638 484.07306212 -239.859375 467.359375 C-244.19557363 461.0462428 -245.50541429 456.95867782 -245.109375 449.296875 C-244.95548936 443.70360324 -245.09154286 439.95905454 -248.98828125 435.7421875 C-255.19399536 428.29533057 -254.4317535 416.33861941 -254.359375 407.296875 C-254.35486328 406.22695313 -254.35035156 405.15703125 -254.34570312 404.0546875 C-254.33397249 401.42702514 -254.31755728 398.79947962 -254.296875 396.171875 C-255.47830078 395.91664063 -255.47830078 395.91664063 -256.68359375 395.65625 C-284.55709564 389.45480816 -284.55709564 389.45480816 -293.296875 377.171875 C-298.92146445 367.27705899 -301.01938499 357.83399356 -298.75390625 346.44140625 C-293.33965925 329.63944725 -280.0647367 314.37864777 -270.23828125 300.01220703 C-266.19915305 294.1028487 -262.1892913 288.17906867 -258.296875 282.171875 C-257.69407715 281.24955078 -257.69407715 281.24955078 -257.07910156 280.30859375 C-246.91322797 264.62455939 -244.25766243 251.566079 -245.796875 232.796875 C-248.79828666 193.55783137 -242.39098372 154.30356696 -224.296875 119.171875 C-223.93754883 118.46853027 -223.57822266 117.76518555 -223.20800781 117.04052734 C-197.94807745 68.15689412 -151.74712963 30.92736031 -99.61962891 14.19189453 C-67.12485916 4.21664486 -33.88638665 0.40874109 0 0 Z " fill="#00B580" transform="translate(514.296875,229.828125)"/>
<path d="M0 0 C1.96848152 -0.005476 1.96848152 -0.005476 3.97673035 -0.01106262 C7.53447052 -0.02036374 11.09193039 -0.01113991 14.64964843 0.00226951 C18.3952009 0.01369756 22.14074183 0.009468 25.88630676 0.00752258 C32.16936755 0.00664349 38.45231964 0.01764175 44.73535156 0.03613281 C51.97623909 0.05732222 59.21696793 0.06080209 66.4578802 0.05457085 C73.45832847 0.04885749 80.45872146 0.05454426 87.45916176 0.0657444 C90.42341457 0.07036151 93.38763325 0.0712769 96.35188866 0.06915855 C100.49639426 0.06690846 104.64068173 0.08145037 108.78515625 0.09765625 C110.00048035 0.09517883 111.21580444 0.09270142 112.46795654 0.09014893 C130.85098773 0.20446651 145.24676131 6.12405047 158.88598633 18.55981445 C172.56621572 33.12581409 175.99913436 50.60662295 175.79223633 69.79418945 C175.79051881 71.51377274 175.79059739 73.23335865 175.7923584 74.95294189 C175.79072006 78.52642462 175.77229336 82.09926868 175.74047852 85.67260742 C175.70068471 90.22022363 175.69645698 94.76701224 175.70394135 99.31476974 C175.70702986 102.85473015 175.69482605 106.39450938 175.67781067 109.93442535 C175.67085364 111.61031202 175.66764711 113.28621917 175.66850281 114.96212006 C175.65265563 135.36381323 170.72334015 151.68891818 156.03833008 166.55981445 C142.53511969 179.1342326 128.08272279 183.63798021 109.99926758 183.2668457 C106.65527799 183.24287935 103.31133159 183.22939367 99.96728516 183.21582031 C97.67177522 183.19522769 95.37635363 183.15500884 93.08154297 183.09472656 C78.17644654 182.20249998 78.17644654 182.20249998 65.39152527 188.5620575 C63.12517419 191.04014324 61.17832343 193.65855676 59.19848633 196.37231445 C57.80043946 197.68642577 56.37085879 198.96966944 54.88598633 200.18481445 C52.42660979 202.27629245 50.12871351 204.42524551 47.88598633 206.74731445 C44.21939389 210.4719751 40.22042618 213.71164496 36.15161133 216.9855957 C33.15339684 219.40875582 30.20655704 221.88554337 27.26098633 224.37231445 C22.24863564 228.55795276 17.1417299 232.53896791 11.86645508 236.38793945 C9.27612443 238.25552743 9.27612443 238.25552743 7.31176758 240.04418945 C2.88821857 243.85722444 -1.23172948 244.05341549 -6.98510742 243.79418945 C-10.82469756 243.21904974 -13.02411977 242.07661904 -15.80151367 239.37231445 C-17.5095782 235.86623014 -18.06259135 233.00326407 -18.12036133 229.12304688 C-18.14023102 228.10236618 -18.16010071 227.08168549 -18.18057251 226.03007507 C-18.19212372 224.94031876 -18.20367493 223.85056244 -18.21557617 222.7277832 C-18.23494232 221.60285965 -18.25430847 220.4779361 -18.27426147 219.31892395 C-18.33395077 215.73263079 -18.38040062 212.14630536 -18.42651367 208.55981445 C-18.4647032 206.12555581 -18.5037555 203.69131054 -18.54370117 201.25708008 C-18.63964365 195.2956104 -18.72472242 189.33405992 -18.80151367 183.37231445 C-19.60250488 183.11474365 -20.40349609 182.85717285 -21.22875977 182.59179688 C-22.29175293 182.24479736 -23.35474609 181.89779785 -24.44995117 181.5402832 C-25.49844238 181.2002124 -26.54693359 180.8601416 -27.62719727 180.50976562 C-37.27397951 177.05303908 -44.59847816 171.563016 -51.80151367 164.37231445 C-52.45120117 163.73422852 -53.10088867 163.09614258 -53.77026367 162.4387207 C-67.37310212 148.0901126 -68.2807922 129.10111937 -68.23510742 110.4230957 C-68.23968638 108.75074557 -68.24499693 107.0783973 -68.25099182 105.40605164 C-68.25984167 101.93110419 -68.25759116 98.4563876 -68.24755859 94.98144531 C-68.23603649 90.56389281 -68.2563714 86.14713592 -68.28547573 81.72968769 C-68.3039502 78.28664739 -68.30352378 74.84379428 -68.29783821 71.40071678 C-68.2976866 69.77308213 -68.30359602 68.14543346 -68.31612968 66.51784706 C-68.44262511 47.41968027 -63.21263282 31.97471021 -49.66479492 18.1027832 C-45.66868437 14.29203112 -41.54354201 11.18883765 -36.80151367 8.37231445 C-36.01260742 7.90180664 -35.22370117 7.43129883 -34.41088867 6.9465332 C-23.59542469 1.03291661 -12.1322508 -0.07668856 0 0 Z M-28.61401367 27.30981445 C-29.30108398 27.79321289 -29.9881543 28.27661133 -30.69604492 28.7746582 C-31.39084961 29.30188477 -32.0856543 29.82911133 -32.80151367 30.37231445 C-33.63811523 30.98719727 -34.4747168 31.60208008 -35.33666992 32.2355957 C-37.96099862 34.51056844 -39.58829645 36.68452437 -41.42651367 39.62231445 C-41.9962793 40.5143457 -42.56604492 41.40637695 -43.15307617 42.32543945 C-48.19520145 51.64500751 -48.24493046 59.83509416 -48.19995117 70.1730957 C-48.2019758 71.81682972 -48.20489046 73.46056286 -48.20864868 75.10429382 C-48.21305748 78.54129631 -48.20669029 81.978064 -48.19262695 85.41503906 C-48.17557645 89.7925539 -48.18535902 94.16951512 -48.20334435 98.54700947 C-48.21425617 101.94022181 -48.2107015 105.33330595 -48.20296097 108.72652245 C-48.20097722 110.33905289 -48.20335312 111.95159544 -48.21039963 113.56411171 C-48.26394387 129.26460505 -46.10798566 140.41312611 -35.07495117 152.2199707 C-25.92859146 160.69444143 -15.99369192 162.39659312 -3.98120117 162.9934082 C-0.80151367 163.37231445 -0.80151367 163.37231445 2.19848633 165.37231445 C2.59721375 167.39712524 2.59721375 167.39712524 2.63085938 169.91381836 C2.65065353 170.85464264 2.67044769 171.79546692 2.69084167 172.76480103 C2.6972316 173.78254608 2.70362152 174.80029114 2.71020508 175.84887695 C2.72815628 176.88926117 2.74610748 177.92964539 2.76460266 179.0015564 C2.81890315 182.33343417 2.85266485 185.66516712 2.88598633 188.99731445 C2.91914194 191.25254303 2.95362993 193.50775245 2.98950195 195.76293945 C3.07464066 201.29926791 3.14290655 206.83561467 3.19848633 212.37231445 C6.07939605 213.33757906 6.07939605 213.33757906 8.88208008 212.5793457 C17.6358058 205.61925643 25.77965144 197.89727913 33.61645508 189.92700195 C35.9239623 187.65937757 38.37530609 185.57172005 40.82348633 183.45825195 C43.86526717 180.78668785 46.84697153 178.05369667 49.82348633 175.30981445 C50.63100342 174.5679187 50.63100342 174.5679187 51.45483398 173.81103516 C51.98125488 173.32465576 52.50767578 172.83827637 53.05004883 172.3371582 C53.51233887 171.91039795 53.97462891 171.4836377 54.45092773 171.04394531 C56.42998823 169.2412989 56.42998823 169.2412989 58.5625 166.22851562 C62.43065458 162.38371283 66.51646116 162.67253279 71.74406433 162.64266968 C72.99101578 162.66431183 74.23796722 162.68595398 75.52270508 162.70825195 C77.50533342 162.70180258 79.48796195 162.69533151 81.47058582 162.68763161 C84.24159592 162.68381667 87.01212573 162.70649934 89.78302002 162.72991943 C94.61032867 162.76984928 99.4373837 162.79127589 104.2648468 162.77774048 C106.82933222 162.77319793 109.39394563 162.78759045 111.95817566 162.82406616 C125.45893174 162.82003693 134.38567492 158.66532187 144.13598633 149.5637207 C152.15574569 141.25013396 155.27486664 130.61238883 155.39135742 119.29394531 C155.39953491 118.60048004 155.4077124 117.90701477 155.4161377 117.1925354 C155.44085737 114.9074181 155.45747751 112.62236259 155.47192383 110.3371582 C155.47990934 109.15843738 155.47990934 109.15843738 155.48805618 107.95590401 C155.51473593 103.79238997 155.53412295 99.62890531 155.54858398 95.46533203 C155.56188715 92.04057901 155.58967935 88.6164269 155.63061523 85.19189453 C155.68027273 81.03632211 155.70474523 76.88129161 155.71181107 72.72543526 C155.71847035 71.15274694 155.7335512 69.58006817 155.75770187 68.00755119 C155.93058639 56.06460496 154.56477087 45.04102047 145.88598633 35.99731445 C136.93777755 26.81362649 127.8622953 21.4082956 114.69760132 20.87110901 C112.33258749 20.85067071 109.96732075 20.85160665 107.60229492 20.87060547 C106.2998735 20.86520248 104.99745209 20.8597995 103.65556335 20.85423279 C100.12041742 20.84040689 96.58576519 20.85135463 93.05064726 20.867944 C89.3304438 20.88191627 85.61026549 20.87532092 81.89004517 20.87181091 C75.6480525 20.86911899 69.40625326 20.88249849 63.16430664 20.90576172 C55.97053499 20.93238846 48.77708596 20.93410736 41.58328187 20.92237335 C34.6303355 20.91155807 27.67750465 20.91781045 20.72456741 20.93192863 C17.77983459 20.93765368 14.83518729 20.93763349 11.89045334 20.93286324 C7.77208947 20.92716183 3.654199 20.94650128 -0.46411133 20.96826172 C-1.67165573 20.96376007 -2.87920013 20.95925842 -4.12333679 20.95462036 C-12.92071413 21.03157311 -21.29594335 22.03464713 -28.61401367 27.30981445 Z " fill="#00B680" transform="translate(616.801513671875,125.627685546875)"/>
<path d="M0 0 C2 0.1875 2 0.1875 4 1 C6.37127055 4.55690582 6.96004812 7.95672295 7.8125 12.0625 C10.10936903 22.32538253 13.26979262 31.46110973 22 38 C25.69798011 40.03863006 29.59318182 41.4719021 33.5390625 42.953125 C39.69264241 45.41455696 39.69264241 45.41455696 41.3125 48.5 C40.88573476 51.91412192 39.58146774 52.77192184 37 55 C35.11698407 56.00337849 33.19611024 56.93775874 31.25 57.8125 C21.8702534 62.41108623 15.55044512 67.73385983 11.73535156 77.71240234 C9.69223245 84.06832071 8.37174693 90.65879136 7.00341797 97.18676758 C6.77025879 98.2930249 6.53709961 99.39928223 6.296875 100.5390625 C5.99281738 102.04267334 5.99281738 102.04267334 5.68261719 103.57666016 C5 106 5 106 3 108 C0.875 107.625 0.875 107.625 -1 107 C-2.00427774 102.54273856 -2.99143644 98.08445413 -3.89453125 93.60546875 C-7.05214387 76.24512394 -7.05214387 76.24512394 -17.3515625 62.58984375 C-22.09828391 59.74041069 -27.17046541 57.65404444 -32.29296875 55.578125 C-35.38346244 54.31336851 -38.18675657 52.81358606 -41 51 C-40.84375 48.65625 -40.84375 48.65625 -40 46 C-37.59375 44.59375 -37.59375 44.59375 -34.5 43.5 C-22.19015272 38.81262043 -13.10913964 33.74533375 -7.34765625 21.515625 C-5.56020028 16.85269638 -4.3459417 12.13317712 -3.29223633 7.25634766 C-2.18523217 2.18523217 -2.18523217 2.18523217 0 0 Z " fill="#00B680" transform="translate(848,189)"/>
<path d="M0 0 C1.44255913 -0.00856522 1.44255913 -0.00856522 2.91426086 -0.01730347 C3.97297897 -0.01842133 5.03169708 -0.01953918 6.12249756 -0.02069092 C7.23481247 -0.02565582 8.34712738 -0.03062073 9.4931488 -0.03573608 C13.18698741 -0.05038654 16.88078306 -0.05716495 20.574646 -0.06268311 C23.13574221 -0.06843272 25.6968384 -0.07419047 28.25793457 -0.07995605 C32.94693741 -0.08912893 37.63592302 -0.09542553 42.32493329 -0.09845281 C49.22148141 -0.10292983 56.11783096 -0.12045953 63.0143187 -0.1494534 C68.99012697 -0.17370249 74.96584155 -0.18139855 80.9417038 -0.18312836 C83.48222687 -0.18615718 86.02274905 -0.19419338 88.56324005 -0.20731354 C92.1183018 -0.22436077 95.67288031 -0.22249655 99.22796631 -0.21600342 C100.27858749 -0.2252182 101.32920868 -0.23443298 102.41166687 -0.243927 C107.80951727 -0.2130309 111.83087346 -0.02098477 116.434021 3.14044189 C119.1023851 7.14298806 119.2680448 10.43357489 118.434021 15.14044189 C116.25242954 17.89613636 114.56224606 19.57632936 111.434021 21.14044189 C109.88704687 21.24336589 108.3357464 21.28423148 106.78538513 21.29434204 C105.3154158 21.30724274 105.3154158 21.30724274 103.81575012 21.32040405 C102.73675949 21.324664 101.65776886 21.32892395 100.54608154 21.33331299 C98.84593903 21.34557922 98.84593903 21.34557922 97.1114502 21.35809326 C93.34788549 21.38297555 89.58435853 21.3994696 85.82073975 21.41387939 C84.53800486 21.41920307 83.25526997 21.42452675 81.93366432 21.43001175 C76.54381635 21.45124633 71.15398072 21.47037646 65.76410198 21.48163414 C58.04023465 21.49787298 50.31687042 21.53104885 42.59319276 21.58803499 C36.50738607 21.63140547 30.42177675 21.64737923 24.33582497 21.65376663 C21.74700144 21.6604966 19.15818573 21.67576352 16.56946373 21.69965744 C12.94929865 21.73116792 9.33040945 21.73136628 5.71014404 21.72393799 C4.6372261 21.74034332 3.56430817 21.75674866 2.45887756 21.77365112 C-4.83973772 21.71222761 -4.83973772 21.71222761 -8.70823669 18.66647339 C-9.32129166 17.832883 -9.93434662 16.9992926 -10.565979 16.14044189 C-10.895979 15.81044189 -11.225979 15.48044189 -11.565979 15.14044189 C-12.25684904 8.34688658 -12.25684904 8.34688658 -10.519104 5.31231689 C-7.13394162 1.21029659 -5.16409728 0.01832205 0 0 Z " fill="#00B781" transform="translate(617.5659790039063,182.85955810546875)"/>
<path d="M0 0 C1.30074211 -0.01007584 1.30074211 -0.01007584 2.62776184 -0.02035522 C5.49433118 -0.03935171 8.36066655 -0.04326041 11.22729492 -0.04541016 C13.2226318 -0.05183751 15.21796772 -0.05856582 17.21330261 -0.06558228 C21.39710677 -0.07755958 25.58082834 -0.08126269 29.76464844 -0.08007812 C35.1179728 -0.07987504 40.47076564 -0.10716413 45.82396412 -0.14162254 C49.94616615 -0.16389449 54.06824041 -0.16791555 58.19049644 -0.16685867 C60.16361 -0.16921468 62.13672707 -0.17803821 64.10978127 -0.19352341 C66.87434364 -0.21318687 69.63776174 -0.20734373 72.40234375 -0.1953125 C73.21245911 -0.20655151 74.02257446 -0.21779053 74.85723877 -0.22937012 C80.47073403 -0.16749848 83.77407874 1.06443795 88.39526367 4.29052734 C90.12790279 7.75580558 89.86724108 11.50159762 89.39526367 15.29052734 C87.031081 19.40595644 84.86253704 20.92566491 80.39526367 22.29052734 C77.41713527 22.58823716 74.45292151 22.59454114 71.46166992 22.59692383 C70.57164276 22.60524734 69.6816156 22.61357086 68.76461792 22.62214661 C65.8289551 22.64619983 62.8935145 22.65501166 59.95776367 22.66162109 C57.91422459 22.67058877 55.87068618 22.67971064 53.82714844 22.6889801 C49.54677739 22.70545836 45.26648448 22.71316849 40.98608398 22.71606445 C35.50133936 22.72145662 30.01732829 22.7591763 24.53279114 22.80480862 C20.31373404 22.83454322 16.09485469 22.84178718 11.8757019 22.8427906 C9.85347116 22.84699763 7.83124011 22.85945118 5.80911255 22.88030815 C2.98180976 22.90715656 0.15622247 22.90241748 -2.67114258 22.88989258 C-3.50557892 22.90472687 -4.34001526 22.91956116 -5.19973755 22.93484497 C-9.5237512 22.88028195 -11.11080307 22.68827575 -14.60058594 19.87806702 C-17.74729954 15.81537475 -18.12215248 13.46468887 -17.60473633 8.29052734 C-13.35218887 0.78903363 -8.02325711 -0.00890978 0 0 Z " fill="#00B580" transform="translate(623.604736328125,229.70947265625)"/>
<path d="M0 0 C1.90234375 0.671875 1.90234375 0.671875 4 2 C4.94140625 4.390625 4.94140625 4.390625 5.5625 7.25 C7.69726111 16.04154305 10.90094973 22.26652595 18.75 27.0625 C21.96292384 28.918856 25.20808819 30.60397586 28.5625 32.1875 C32 34 32 34 33 37 C30.54988089 39.77899415 27.91240255 41.20878227 24.625 42.875 C20.3591602 45.16207311 17.1325058 47.24099303 14 51 C13.49855469 51.58523438 12.99710938 52.17046875 12.48046875 52.7734375 C7.76880715 58.57416931 5.96971769 64.37972063 4.0625 71.5 C3.711875 72.325 3.36125 73.15 3 74 C0.93359375 74.65625 0.93359375 74.65625 -1 75 C-1.37125 73.7625 -1.7425 72.525 -2.125 71.25 C-4.886666 62.97809047 -8.68255623 52.47149179 -16.26171875 47.5234375 C-17.46248047 46.95496094 -17.46248047 46.95496094 -18.6875 46.375 C-19.99267578 45.75431641 -19.99267578 45.75431641 -21.32421875 45.12109375 C-24.54974126 43.76967045 -27.80380898 42.74722803 -31.1875 41.87109375 C-33.57350538 40.72437134 -34.05327928 39.41117934 -35 37 C-32.42402633 33.86559847 -29.66488055 33.02225305 -25.875 31.75 C-16.94695341 28.40943914 -10.33460477 24.15817996 -5.98828125 15.48046875 C-4.53378908 11.82986588 -3.55304709 8.11175756 -2.67578125 4.28515625 C-2 2 -2 2 0 0 Z " fill="#00B681" transform="translate(809,308)"/>
<path d="M0 0 C2.99964899 2.20688461 3.90216398 3.38833229 4.49609375 7.1015625 C4.28372742 19.87185765 2.00096116 29.36956646 -6.78125 38.94140625 C-14.72309595 46.47639533 -24.65206202 50.39727256 -35.52734375 50.28515625 C-40.08684723 49.75933673 -42.69473455 47.2617566 -45.875 44.1875 C-47.56608817 40.899273 -47.51081178 38.63953395 -47 35 C-44.88798183 31.6811143 -43.0721909 30.29996732 -39.27734375 29.23828125 C-38.25769531 29.01527344 -37.23804688 28.79226563 -36.1875 28.5625 C-30.33290915 27.27189438 -26.12481711 25.42612617 -22 21 C-19.95364146 17.31655463 -18.97167882 13.8871418 -18.125 9.8125 C-16.84120111 5.4618482 -15.82062819 4.31014727 -12 2 C-7.95859014 -0.12705782 -4.53986004 -0.49525746 0 0 Z " fill="#00474D" transform="translate(447,358)"/>
<path d="M0 0 C9.561031 3.23774422 18.82430769 8.55796719 24.76171875 16.87890625 C26.89024497 21.31100196 26.95211573 25.58585826 25.94921875 30.3515625 C24.05233445 33.00720052 22.8043682 33.92398777 19.94921875 35.3515625 C15.52587987 35.72017407 12.96448248 35.83804304 8.94921875 33.9140625 C6.245065 31.6042645 4.2984598 29.34940893 2.07421875 26.6015625 C-1.29805962 22.67555369 -1.29805962 22.67555369 -6.11328125 21.4140625 C-9.47561981 21.78620483 -11.0414042 23.02302566 -13.42578125 25.3515625 C-16.3073364 28.14037794 -18.21820927 28.8683713 -22.23828125 29.0390625 C-25.67884467 28.79817069 -26.83458751 28.51113407 -29.67578125 26.4140625 C-31.85245985 21.56600561 -31.95364992 17.28989248 -30.390625 12.203125 C-24.63603917 -0.80074428 -12.93127555 -2.74851695 0 0 Z " fill="#00474E" transform="translate(455.05078125,414.6484375)"/>
<path d="M0 0 C0.53625 0.268125 1.0725 0.53625 1.625 0.8125 C0.92375 1.204375 0.2225 1.59625 -0.5 2 C-3.73574432 4.03992577 -6.47757782 6.31936929 -9.375 8.8125 C-9.12158809 5.39143924 -8.06717816 4.50467816 -5.5625 2 C-2.375 -0.1875 -2.375 -0.1875 0 0 Z " fill="#003B49" transform="translate(437.375,415.1875)"/>
<path d="M0 0 C0.825 0.639375 1.65 1.27875 2.5 1.9375 C6.23191406 4.46413081 9.55723303 4.69360228 14 5 C14 5.33 14 5.66 14 6 C12.41753293 6.08153933 10.83383727 6.13943557 9.25 6.1875 C7.92742188 6.23970703 7.92742188 6.23970703 6.578125 6.29296875 C3.50324903 5.94355103 2.17360146 5.17867997 0 3 C0 2.01 0 1.02 0 0 Z " fill="#006864" transform="translate(593,594)"/>
</svg>
